<?xml version="1.0" standalone="no"?>
<!DOCTYPE svg PUBLIC "-//W3C//DTD SVG 20010904//EN"
 "http://www.w3.org/TR/2001/REC-SVG-20010904/DTD/svg10.dtd">
<svg version="1.0" xmlns="http://www.w3.org/2000/svg"
 width="1264.000000pt" height="1280.000000pt" viewBox="0 0 1264.000000 1280.000000"
 preserveAspectRatio="xMidYMid meet">
<metadata>
Created by potrace 1.15, written by Peter Selinger 2001-2017
</metadata>
<g transform="translate(0.000000,1280.000000) scale(0.100000,-0.100000)"
fill="#000000" stroke="none">
<path d="M135 12786 c-40 -17 -82 -67 -95 -114 -8 -26 -10 -1085 -8 -3577 l3
-3540 22 -35 c12 -20 40 -46 61 -58 l40 -22 1336 0 1336 0 0 -195 0 -195 -765
0 -765 0 0 -343 0 -343 -650 -463 -650 -463 0 -374 0 -374 4615 0 4615 0 -2
377 -3 377 -247 175 c-135 97 -245 177 -244 179 2 1 37 -3 77 -9 102 -16 312
-6 416 20 118 29 186 67 320 179 65 54 172 138 238 187 66 48 212 161 325 249
570 449 741 535 1119 566 216 18 441 -19 608 -100 101 -49 205 -143 282 -255
110 -159 225 -441 272 -667 28 -136 23 -350 -11 -473 -22 -81 -103 -265 -116
-265 -4 0 -41 21 -81 46 -64 40 -87 48 -166 60 -113 17 -262 6 -413 -30 -185
-45 -292 -94 -479 -219 -390 -260 -583 -494 -908 -1097 -207 -386 -299 -583
-339 -731 -30 -112 -33 -386 -5 -489 40 -149 134 -300 250 -405 70 -63 349
-243 443 -286 198 -90 407 -101 607 -33 219 74 371 194 581 455 205 256 477
640 594 839 230 391 340 940 264 1318 -35 174 -83 297 -163 414 l-39 58 37 47
c45 59 105 186 130 273 22 80 25 341 4 435 -41 191 -115 399 -222 623 -153
323 -294 450 -610 550 -280 89 -585 111 -793 57 -146 -38 -365 -146 -558 -275
-179 -118 -626 -449 -821 -607 -190 -154 -269 -204 -385 -243 -131 -44 -248
-61 -447 -67 l-180 -5 -71 48 c-39 27 -182 128 -318 224 l-246 175 0 343 0
342 -765 0 -765 0 2 193 3 192 1325 5 1325 5 37 23 c21 13 45 40 57 66 l21 43
-2 3555 -3 3556 -31 39 c-17 21 -46 46 -65 55 -32 17 -266 18 -4469 18 -3665
-1 -4440 -3 -4465 -14z"/>
</g>
</svg>
